# xmcd CD database file
#
# Track frame offsets:
#	183
#	23250
#	46465
#	62595
#	112933
#	147755
#	175495
#	217923
#	237863
#	262108
#
# Disc length: 3749 seconds
#
# Revision: 0
# Processed by: cddbd v1.5.2PL0 Copyright (c) Steve Scherf et al.
# Submitted via: CDex 1.51
#
DISCID=820ea30a
DTITLE=Tajalli - The Luminous Rainforest
DYEAR=1994
DGENRE=New Age
TTITLE0=Earth in Balance
TTITLE1=The Enchanted Deva
TTITLE2=Tropical Suite
TTITLE3=The Luminous Rainforest
TTITLE4=Primal Sanctuary
TTITLE5=Native Awakening
TTITLE6=Indigenous Village
TTITLE7=Jungle Carnival
TTITLE8=Curari
TTITLE9=Spirits in the Mist
EXTD=YEAR: 1994
EXTT0=
EXTT1=
EXTT2=
EXTT3=
EXTT4=
EXTT5=
EXTT6=
EXTT7=
EXTT8=
EXTT9=
PLAYORDER=
